<svg xmlns="http://www.w3.org/2000/svg" fill="none" width="192" height="93.899"><path opacity=".35" d="M105.09 6.873a16.816 16.816 0 00-15.876 11.132 14.869 14.869 0 103.678 17.425 16.914 16.914 0 0018.568 4.134 16.91 16.91 0 0010.667-15.75 16.985 16.985 0 00-5.008-12.002 16.968 16.968 0 00-12.03-4.939z" fill="#2c8cff"/><path d="M77.016 42.206c9.356 0 16.941-7.584 16.941-16.94 0-9.356-7.585-16.94-16.94-16.94-9.357 0-16.941 7.584-16.941 16.94 0 9.356 7.584 16.94 16.94 16.94z" fill="#fff"/><path d="M77.017 10.261a15.005 15.005 0 11-15.005 15.005A15.082 15.082 0 0177.017 10.26zm0-1.936a16.94 16.94 0 1016.94 16.94 16.903 16.903 0 00-16.94-16.94z" fill="url(#paint0_linear)"/><path d="M72.95 19.167l.388 2.42a.631.631 0 00.871.484l5.034-1.742a1.307 1.307 0 00.871-1.452l-.387-2.42a.63.63 0 00-.871-.484l-5.034 1.742a1.442 1.442 0 00-.871 1.452zm2.324 11.52l.387 2.42a.63.63 0 00.871.484l6.486-2.227a1.307 1.307 0 00.871-1.452l-.387-2.42a.63.63 0 00-.871-.484l-6.486 2.227a1.442 1.442 0 00-.871 1.452zm-6.544-3.872l.387 2.42a.63.63 0 00.872.484l8.712-3.001a1.307 1.307 0 00.871-1.452l-.387-2.42a.63.63 0 00-.871-.484l-8.713 3a1.307 1.307 0 00-.87 1.453zm37.618 11.713c10.639 0 19.264-8.625 19.264-19.264S116.987 0 106.348 0 87.084 8.625 87.084 19.264s8.625 19.264 19.264 19.264z" fill="#0041ff"/><path d="M114.867 16.94c.387-2.516-1.55-3.872-4.163-4.743l.871-3.388-2.13-.484-.87 3.291c-.581-.096-1.065-.29-1.646-.387l.87-3.388-2.129-.484-.871 3.388-1.355-.29-2.904-.678-.581 2.227 1.549.387a1.113 1.113 0 01.968 1.258l-.968 3.872c.097 0 .193 0 .193.097l-.193-.097-1.356 5.421a.802.802 0 01-.968.484l-1.548-.387-1.065 2.42 2.71.678 1.452.387-.87 3.485 2.129.484.871-3.388c.54.165 1.089.293 1.646.387l-.872 3.388 2.13.484.871-3.485c3.582.678 6.196.388 7.357-2.807.872-2.614 0-4.066-1.936-5.034a3.503 3.503 0 002.808-3.097zm-4.744 6.68c-.677 2.614-5.034 1.162-6.389.871l1.162-4.55c1.355.194 5.905.969 5.227 3.68zm.678-6.776c-.581 2.323-4.26 1.161-5.421.871l1.103-4.163c1.123.29 4.899.872 4.318 3.292z" fill="#fff"/><path d="M112.06 34.075l.58 17.715 5.421-7.55 9.196-.969z" fill="#00266d" stroke="#fff" stroke-width="2.02" stroke-miterlimit="10"/><path d="M43.697 93.258a.833.833 0 01-.817-1.002l.221-1.13a8.724 8.724 0 01-3.085 1.973c-1.32.532-2.732.803-4.156.797a8.661 8.661 0 01-5.986-2.157 7.326 7.326 0 01-2.426-5.776c0-3.09 1.11-5.54 3.327-7.347 2.22-1.807 5.159-2.712 8.82-2.716a11.007 11.007 0 015.859 1.582l.21-1.055a8.49 8.49 0 00.212-1.703c0-2.169-1.349-3.253-4.046-3.25-2.662.045-5.268.771-7.568 2.111A.833.833 0 0133.043 73l-.59-3.275a1.64 1.64 0 01.79-1.736 19.45 19.45 0 019.705-2.6c1.014 0 2.024.126 3.007.374 1.096.289 2.15.722 3.133 1.288a6.604 6.604 0 012.584 2.636 8.534 8.534 0 01.98 4.22 22.351 22.351 0 01-.4 3.164l-2.579 14.8a1.678 1.678 0 01-1.651 1.387zm-5.917-5.433a9.494 9.494 0 005.976-2.036.838.838 0 00.31-.527l.349-1.878a.833.833 0 00-.528-.94 13.095 13.095 0 00-4.414-.7 7.29 7.29 0 00-3.692.88 2.901 2.901 0 00-1.52 2.69 2.141 2.141 0 00.961 1.81 4.298 4.298 0 002.559.701zm25.832 6.07a13.834 13.834 0 01-6.176-1.382 8.965 8.965 0 01-3.57-2.926.85.85 0 01.179-1.156l3.165-2.41a1.704 1.704 0 012.179.132 7.158 7.158 0 004.925 1.888 5.707 5.707 0 002.742-.617 1.973 1.973 0 001.145-1.835c0-.707-.606-1.43-1.815-2.158a29.41 29.41 0 00-3.992-1.993 11.54 11.54 0 01-3.992-2.848 6.471 6.471 0 01-1.81-4.557 7.531 7.531 0 013.043-6.282c2.026-1.56 4.635-2.34 7.828-2.34a11.605 11.605 0 018.522 3.644.833.833 0 01-.137 1.233l-3.227 2.369a1.661 1.661 0 01-2.11-.116 5.448 5.448 0 00-3.813-1.383 4.488 4.488 0 00-2.505.64 1.961 1.961 0 00-.955 1.703c0 .527.407 1.055 1.224 1.582a23.586 23.586 0 002.952 1.545 33.235 33.235 0 013.436 1.783 9.806 9.806 0 012.932 2.689 6.328 6.328 0 011.224 3.808c0 2.813-1.021 5.015-3.065 6.603-2.043 1.59-4.819 2.385-8.328 2.385zM23.651 67.742c-1.368-1.614-3.346-2.42-5.934-2.42a8.133 8.133 0 00-6.714 3.353l.311-1.734a.838.838 0 00-.828-.982H3.03a1.673 1.673 0 00-1.646 1.382l-.528 3.08a.838.838 0 00.823.981h1.994L.012 92.187a.838.838 0 00.828.98h4.41a1.678 1.678 0 001.645-1.38L9.42 77.513c.316-1.881 1.035-3.302 2.157-4.262a5.416 5.416 0 013.592-1.434c2.306 0 3.46 1.242 3.46 3.724a18.654 18.654 0 01-.264 2.61l-2.505 14.034a.838.838 0 00.823.98h4.414a1.677 1.677 0 001.65-1.38l2.527-14.188a21.86 21.86 0 00.427-3.73 9.204 9.204 0 00-2.052-6.128z" fill="#002769"/><path d="M160.556 68.269c-1.368-1.614-3.348-2.421-5.938-2.421a8.132 8.132 0 00-6.71 3.354l.312-1.735a.847.847 0 00-.186-.683.83.83 0 00-.642-.298h-7.457a1.674 1.674 0 00-1.646 1.382l-.527 3.08a.826.826 0 00.184.68.841.841 0 00.638.3h1.994l-3.66 20.786a.847.847 0 00.185.683.83.83 0 00.642.298h4.41a1.677 1.677 0 001.651-1.382l2.526-14.272c.316-1.88 1.033-3.301 2.152-4.261a5.434 5.434 0 013.597-1.435c2.307 0 3.46 1.241 3.46 3.724a18.598 18.598 0 01-.264 2.61l-2.49 14.035a.845.845 0 00.015.362.843.843 0 00.455.542.84.84 0 00.353.077h4.415a1.677 1.677 0 001.65-1.382l2.505-14.187a21.945 21.945 0 00.428-3.729 9.202 9.202 0 00-2.052-6.128z" fill="#0041ff"/><path d="M102.43 87.814h-1.983l1.803-10.105c.245-1.23.386-2.476.422-3.729a9.196 9.196 0 00-2.046-6.15c-1.367-1.614-3.347-2.42-5.938-2.42a8.222 8.222 0 00-6.762 3.408l2.258-12.658a.84.84 0 00-1.056-.95l-5.004 1.582a1.665 1.665 0 00-1.15 1.308L76.987 92.27a.834.834 0 00.823.98h5.116a.833.833 0 00.823-.69L86.386 77.6c.323-1.885 1.043-3.305 2.157-4.262a5.416 5.416 0 013.591-1.434c2.31 0 3.466 1.24 3.466 3.723a18.04 18.04 0 01-.27 2.637L92.863 92.27a.838.838 0 00.829.988h7.384a1.675 1.675 0 001.65-1.383l.528-3.08a.842.842 0 00-.823-.98z" fill="#002769"/><path d="M107.51 92.704l5.965-34.15a.846.846 0 01.584-.666l6.23-1.872a.842.842 0 011.054.955l-6.392 36.028a.846.846 0 01-.834.696h-5.775a.847.847 0 01-.832-.991zm14.455 0l4.446-25.258a.852.852 0 01.834-.702h5.88a.848.848 0 01.645.303.842.842 0 01.183.688L129.507 93a.85.85 0 01-.833.696h-5.875a.84.84 0 01-.649-.3.846.846 0 01-.185-.691zm8.871-28.597a3.333 3.333 0 01-2.531-1.055 3.538 3.538 0 01-1.002-2.531 4.856 4.856 0 011.476-3.508 4.46 4.46 0 013.218-1.503 3.606 3.606 0 012.663 1.029 3.481 3.481 0 011.029 2.558 4.87 4.87 0 01-1.477 3.507 4.614 4.614 0 01-3.376 1.503zm52.884 11.614l5.385 16.877a.853.853 0 01-.12.755.842.842 0 01-.681.347h-6.092a.847.847 0 01-.802-.586l-3.634-11.45a.838.838 0 00-1.344-.39l-1.235 1.055a.86.86 0 00-.285.496l-1.825 10.184a.842.842 0 01-.828.697h-5.801a.842.842 0 01-.833-.988l5.965-34.154a.833.833 0 01.585-.66l6.26-1.882a.842.842 0 011.056.955l-2.358 13.38a.846.846 0 00.918.985.844.844 0 00.469-.204l4.747-4.172a.836.836 0 01.559-.211h7.347a.842.842 0 01.527 1.487l-7.78 6.587a.848.848 0 00-.2.892z" fill="#0041ff"/><defs id="defs46"><linearGradient id="paint0_linear" x1="66.17" y1="38.49" x2="90.93" y2="13.73" gradientUnits="userSpaceOnUse" gradientTransform="matrix(.96803 0 0 .96803 .968 0)"><stop stop-color="#004CFD" id="stop38"/><stop offset="1" stop-color="#0052F3" id="stop40"/></linearGradient><clipPath id="clip0"><path fill="#fff" id="rect43" d="M0 0h192.12v106.68H0z"/></clipPath></defs></svg>
